<svg xmlns="http://www.w3.org/2000/svg" width="24" height="24" fill="none" viewBox="0 0 24 24">
  <path fill="#555770" fill-rule="evenodd" d="M7.052 7.759L4.146 4.854a.5.5 0 11.708-.708L8.16 7.454a.5.5 0 01.087.07l.914.93 10.191 10.192a.5.5 0 01-.707.708l-2.669-2.67A10.02 10.02 0 0112 17.5c-3.494 0-6.631-1.743-9.39-5.187a.5.5 0 010-.626 18.803 18.803 0 011.557-1.725c.453-.44.915-.838 1.385-1.195a15.392 15.392 0 011.5-1.008zm.734.734c-.509.278-1.088.66-1.63 1.071-.437.331-.868.703-1.291 1.115-.413.402-.82.842-1.22 1.321C6.16 15.012 8.939 16.5 12 16.5a9.001 9.001 0 003.123-.552l-1.084-1.103a3.5 3.5 0 01-4.848-4.934l-.74-.752-.665-.666zm2.128 2.128a2.5 2.5 0 003.465 3.465l-3.465-3.465zm7.578 4.072a.5.5 0 10.575.818c1.162-.817 2.27-1.883 3.323-3.198a.5.5 0 000-.626C18.631 8.243 15.494 6.5 12 6.5c-.786 0-1.474.056-2.066.17a.5.5 0 10.188.981c.525-.1 1.151-.151 1.878-.151 3.062 0 5.84 1.487 8.354 4.5-.918 1.1-1.873 1.998-2.862 2.693z" clip-rule="evenodd"/>
</svg>
