<svg xmlns="http://www.w3.org/2000/svg" width="24" height="24" fill="none" viewBox="0 0 24 24"><mask id="a" fill="#fff"><path fill-rule="evenodd" d="M3.646 12c2.536 3.039 5.32 4.5 8.354 4.5 3.035 0 5.818-1.461 8.354-4.5-2.536-3.039-5.32-4.5-8.354-4.5-3.035 0-5.818 1.461-8.354 4.5zm-1.036-.313C5.345 8.272 8.477 6.5 12 6.5c3.523 0 6.654 1.772 9.39 5.187a.5.5 0 010 .626C18.654 15.728 15.523 17.5 12 17.5c-3.523 0-6.655-1.772-9.39-5.187a.5.5 0 010-.626zM8.5 12a3.5 3.5 0 117 0 3.5 3.5 0 01-7 0zM12 9.5a2.5 2.5 0 100 5 2.5 2.5 0 000-5z" clip-rule="evenodd"/></mask><path fill="#383946" d="M3.646 12l-.768-.64a1 1 0 000 1.28l.768-.64zm16.708 0l.768.64a1 1 0 000-1.28l-.768.64zM2.61 11.687l-.78-.625.78.625zm18.78 0l-.78.626.78-.626zm0 .626l-.78-.626.78.626zm-18.78 0l-.78.625.78-.625zM12 15.5c-2.664 0-5.187-1.265-7.586-4.14l-1.536 1.28C5.55 15.844 8.594 17.5 12 17.5v-2zm7.587-4.14c-2.4 2.875-4.923 4.14-7.587 4.14v2c3.406 0 6.45-1.657 9.122-4.86l-1.535-1.28zM12 8.5c2.664 0 5.187 1.265 7.587 4.14l1.535-1.28C18.45 8.156 15.406 6.5 12 6.5v2zm-7.586 4.14C6.814 9.766 9.336 8.5 12 8.5v-2c-3.406 0-6.45 1.657-9.122 4.86l1.536 1.28zM12 5.5c-3.91 0-7.304 1.983-10.17 5.562l1.56 1.25C5.995 9.063 8.863 7.5 12 7.5v-2zm10.17 5.562C19.305 7.482 15.91 5.5 12 5.5v2c3.137 0 6.005 1.561 8.61 4.813l1.56-1.25zm0 1.876a1.5 1.5 0 000-1.876l-1.56 1.25a.5.5 0 010-.625l1.56 1.25zM12 18.5c3.91 0 7.304-1.983 10.17-5.562l-1.56-1.25C18.005 14.937 15.137 16.5 12 16.5v2zM1.83 12.938C4.695 16.518 8.09 18.5 12 18.5v-2c-3.137 0-6.005-1.561-8.61-4.813l-1.56 1.25zm0-1.876a1.5 1.5 0 000 1.876l1.56-1.25a.5.5 0 010 .625l-1.56-1.25zM12 7.5A4.5 4.5 0 007.5 12h2A2.5 2.5 0 0112 9.5v-2zm4.5 4.5A4.5 4.5 0 0012 7.5v2a2.5 2.5 0 012.5 2.5h2zM12 16.5a4.5 4.5 0 004.5-4.5h-2a2.5 2.5 0 01-2.5 2.5v2zM7.5 12a4.5 4.5 0 004.5 4.5v-2A2.5 2.5 0 019.5 12h-2zm3 0a1.5 1.5 0 011.5-1.5v-2A3.5 3.5 0 008.5 12h2zm1.5 1.5a1.5 1.5 0 01-1.5-1.5h-2a3.5 3.5 0 003.5 3.5v-2zm1.5-1.5a1.5 1.5 0 01-1.5 1.5v2a3.5 3.5 0 003.5-3.5h-2zM12 10.5a1.5 1.5 0 011.5 1.5h2A3.5 3.5 0 0012 8.5v2z" mask="url(#a)"/></svg>