<svg fill="none" height="32" viewBox="0 0 32 32" width="32" xmlns="http://www.w3.org/2000/svg"><rect fill="#ff832b" height="32" rx="15" width="31.7129" x=".287109"/><path d="m15.8709 21.1558c-.235 0-.4407-.0895-.6169-.2686-.1763-.179-.2742-.4177-.2938-.716l-.8813-12.65085c-.0588-.55696.0783-1.00451.4112-1.34266.3526-.35804.8128-.53707 1.3808-.53707.5484 0 .989.17903 1.322.53707.3525.33815.4994.7857.4406 1.34266l-.8813 12.65085c-.0196.3182-.1077.5669-.2644.7459-.1567.1591-.3623.2387-.6169.2387zm0 5.8182c-.5288 0-.9793-.1791-1.3514-.5371-.3525-.358-.5288-.8155-.5288-1.3725s.1763-1.0145.5288-1.3725c.3721-.3779.8226-.5669 1.3514-.5669s.9694.189 1.322.5669c.3525.358.5288.8155.5288 1.3725s-.1763 1.0145-.5288 1.3725c-.3526.358-.7932.5371-1.322.5371z" fill="#fff"/></svg>